<mxfile host="app.diagrams.net" modified="2020-11-02T00:31:08.968Z" agent="5.0 (Windows)" etag="DtW3_CWDe2azPl2-gwEA" version="13.8.8" type="github">
  <diagram id="GERpwd1_SjyK3ptSiJkn" name="Page-1">
    <mxGraphModel dx="1052" dy="745" grid="1" gridSize="10" guides="1" tooltips="1" connect="1" arrows="1" fold="1" page="1" pageScale="1" pageWidth="850" pageHeight="1100" math="0" shadow="0">
      <root>
        <mxCell id="0" />
        <mxCell id="1" parent="0" />
        <mxCell id="kqS_TdrLSZN1OfgmQclp-1" value="User opens the settings menu" style="ellipse;whiteSpace=wrap;html=1;aspect=fixed;gradientColor=#b3b3b3;fillColor=#f5f5f5;strokeColor=#666666;" vertex="1" parent="1">
          <mxGeometry x="400" y="50" width="80" height="80" as="geometry" />
        </mxCell>
      </root>
    </mxGraphModel>
  </diagram>
</mxfile>
